<?xml version="1.0" standalone="no"?>
<!DOCTYPE svg PUBLIC "-//W3C//DTD SVG 20010904//EN"
 "http://www.w3.org/TR/2001/REC-SVG-20010904/DTD/svg10.dtd">
<svg version="1.0" xmlns="http://www.w3.org/2000/svg"
 width="1090.000000pt" height="1280.000000pt" viewBox="0 0 1090.000000 1280.000000"
 preserveAspectRatio="xMidYMid meet">
<metadata>
Created by potrace 1.15, written by Peter Selinger 2001-2017
</metadata>
<g transform="translate(0.000000,1280.000000) scale(0.100000,-0.100000)"
fill="#000000" stroke="none">
<path d="M3495 12794 c-11 -3 -110 -35 -220 -70 -210 -69 -325 -121 -394 -181
-38 -32 -81 -97 -81 -122 0 -5 20 -17 45 -27 67 -25 130 -14 252 45 161 78
365 115 643 114 347 -1 620 -67 990 -238 74 -34 184 -79 244 -100 214 -76 304
-163 552 -535 171 -257 219 -317 274 -340 44 -18 57 -8 65 49 12 89 -7 138
-88 229 -28 33 -85 119 -126 193 -146 264 -190 319 -357 445 -336 253 -827
462 -1219 519 -99 15 -542 29 -580 19z"/>
<path d="M8196 11719 c-193 -21 -313 -58 -564 -173 -77 -36 -200 -83 -274
-106 -74 -23 -141 -47 -149 -54 -8 -6 -34 -39 -57 -73 -55 -81 -90 -107 -198
-144 -105 -36 -131 -58 -180 -153 -76 -148 -88 -161 -186 -213 -50 -26 -99
-59 -109 -72 -26 -33 -24 -76 7 -128 29 -49 36 -50 111 -7 53 30 84 69 160
196 69 115 91 141 166 197 111 83 453 262 682 356 234 97 338 120 595 130 85
3 198 11 250 17 110 12 250 52 250 72 0 23 -73 91 -123 114 -87 41 -238 57
-381 41z"/>
<path d="M4130 11421 c-25 -5 -84 -21 -130 -36 -122 -38 -196 -54 -270 -56
-58 -2 -70 -6 -110 -39 -101 -82 -219 -147 -450 -248 -267 -116 -406 -193
-500 -279 -24 -21 -69 -72 -100 -113 -66 -85 -102 -120 -215 -210 -44 -35
-165 -148 -269 -252 -103 -104 -228 -219 -277 -255 -125 -91 -140 -125 -94
-218 39 -80 46 -87 86 -73 106 36 213 123 328 266 66 83 71 87 111 89 26 0 56
11 81 27 22 15 54 29 71 33 21 4 58 33 117 93 162 163 353 254 795 381 212 61
452 138 514 165 68 30 70 30 78 -1 7 -27 24 -31 56 -14 34 18 81 12 151 -19
136 -62 344 -226 477 -377 87 -98 106 -128 203 -320 50 -99 105 -192 131 -222
46 -55 51 -67 61 -168 10 -102 16 -123 41 -150 20 -21 32 -25 84 -25 109 0
120 31 122 337 2 295 -15 376 -160 773 -33 91 -63 183 -67 204 -5 26 -31 69
-79 131 -39 51 -105 139 -146 196 -93 128 -205 243 -289 298 -107 68 -246 101
-351 82z"/>
<path d="M8825 10855 c-93 -17 -164 -36 -321 -87 l-130 -43 -150 -165 c-555
-611 -761 -866 -982 -1215 -58 -92 -192 -330 -192 -342 0 -11 62 -24 116 -24
100 -1 151 28 294 168 68 65 175 179 239 253 217 253 237 271 321 284 30 5 76
27 140 69 181 117 372 196 550 228 97 17 350 17 464 0 99 -15 135 -35 316
-180 177 -142 691 -674 743 -770 15 -27 41 -93 57 -146 36 -120 67 -169 126
-198 l45 -22 20 25 c33 43 59 145 59 234 0 97 -10 159 -56 371 -20 88 -38 191
-41 229 -6 64 -11 77 -64 155 -32 47 -114 160 -184 251 -69 91 -191 253 -272
360 -81 107 -152 198 -157 202 -6 4 -21 8 -33 8 -40 0 -168 75 -269 157 -168
136 -238 173 -372 199 -89 17 -173 17 -267 -1z"/>
<path d="M3450 8556 c-155 -28 -307 -79 -461 -157 -53 -26 -110 -46 -163 -55
-107 -20 -134 -31 -152 -66 -22 -42 -3 -102 39 -129 39 -24 92 -21 238 16 105
27 136 30 159 15 20 -12 -14 -24 -170 -60 -192 -43 -256 -78 -291 -154 -26
-57 -24 -61 21 -75 128 -38 258 -23 518 60 386 124 479 117 764 -52 135 -80
257 -133 273 -118 16 16 -12 165 -42 221 -51 94 -152 161 -301 199 -116 30
-225 39 -477 40 l-230 1 74 23 c117 38 205 48 368 43 286 -10 553 -103 720
-252 31 -28 58 -46 60 -40 2 5 21 34 43 63 33 44 61 115 49 125 -2 1 -42 32
-89 68 -188 145 -339 228 -488 269 -98 27 -348 35 -462 15z"/>
<path d="M1825 7976 c-59 -15 -121 -45 -162 -80 -41 -34 -83 -116 -90 -176
l-6 -50 71 0 c39 0 117 9 174 19 256 49 324 50 451 7 l69 -23 -7 36 c-34 192
-278 322 -500 267z"/>
<path d="M8340 7830 c-115 -14 -250 -51 -485 -131 -200 -68 -303 -98 -419
-124 l-28 -6 4 -82 c3 -64 10 -93 29 -127 29 -53 32 -53 165 -17 293 82 761
52 1116 -71 124 -44 217 -86 378 -173 113 -61 242 -119 265 -119 2 0 8 14 15
30 9 21 19 30 35 30 25 0 35 22 35 82 0 31 -5 40 -35 58 -19 12 -35 28 -35 36
0 8 23 26 52 42 76 40 108 74 108 115 0 31 -7 39 -77 89 -187 134 -398 246
-567 302 -174 58 -407 86 -556 66z"/>
<path d="M6925 7616 c-86 -40 -142 -107 -234 -278 -95 -178 -175 -262 -272
-288 l-36 -10 28 -103 c87 -308 150 -747 184 -1272 14 -217 23 -328 56 -738
16 -187 4 -257 -68 -410 -68 -145 -75 -199 -33 -260 13 -20 32 -38 40 -40 31
-8 84 18 102 49 25 43 84 284 103 417 19 139 20 494 0 722 -18 224 -24 357
-35 800 -10 412 -24 529 -80 689 l-32 89 46 66 c25 36 75 102 112 146 129 154
185 262 183 358 -1 86 -5 91 -64 63z"/>
<path d="M1743 7401 c-49 -13 -83 -39 -99 -78 -48 -115 40 -153 352 -153 l169
0 44 -130 c24 -71 46 -152 49 -180 2 -27 8 -50 13 -50 24 0 180 65 374 155
239 112 373 163 505 191 70 15 116 18 255 14 326 -8 437 -5 476 12 38 17 109
74 109 89 0 14 -140 77 -220 98 -133 35 -229 44 -438 38 -322 -8 -608 -72
-847 -188 -45 -21 -84 -39 -88 -39 -4 0 -7 11 -7 25 0 34 -50 88 -118 125 -31
18 -66 41 -77 51 -18 16 -44 19 -220 23 -110 2 -215 1 -232 -3z"/>
<path d="M10080 7128 c-39 -14 -80 -81 -80 -129 0 -23 8 -30 53 -48 88 -35
156 -45 302 -45 214 0 411 51 503 130 35 30 40 39 32 55 -32 58 -131 62 -310
11 l-105 -30 -90 30 c-104 35 -245 47 -305 26z"/>
<path d="M7870 6935 c-8 -2 -49 -9 -90 -15 -41 -7 -81 -17 -87 -22 -8 -6 -13
-34 -13 -68 0 -50 3 -58 24 -68 48 -22 112 -24 206 -7 125 23 239 16 340 -20
104 -38 153 -64 320 -169 80 -50 171 -105 203 -122 53 -28 61 -37 97 -110 32
-63 40 -89 40 -134 l0 -55 92 7 c237 18 448 21 525 8 l78 -13 95 -98 c109
-113 155 -138 244 -139 l58 0 -7 28 c-31 127 -152 268 -290 339 -136 70 -275
103 -508 124 l-117 10 -118 117 c-200 199 -391 312 -641 378 -80 21 -124 26
-266 29 -93 2 -177 2 -185 0z"/>
<path d="M9968 6713 c-16 -2 -28 -10 -28 -17 0 -8 -10 -35 -21 -62 l-22 -48
24 -19 c13 -11 67 -44 119 -74 162 -95 219 -134 261 -182 57 -64 70 -93 81
-179 5 -41 15 -87 24 -103 16 -32 52 -55 64 -42 38 40 62 243 40 342 -29 137
-127 274 -236 333 -86 47 -205 66 -306 51z"/>
<path d="M4660 6133 c0 -16 46 -144 93 -258 89 -217 99 -353 38 -535 -34 -101
-116 -264 -180 -358 -90 -133 -264 -267 -452 -347 -341 -147 -646 -200 -1664
-290 -274 -25 -293 -28 -345 -55 -109 -56 -223 -82 -535 -120 -387 -49 -474
-83 -874 -345 -74 -48 -173 -107 -220 -131 -71 -35 -91 -50 -109 -83 -47 -83
-141 -199 -252 -310 l-115 -113 3 -67 c2 -43 -6 -106 -22 -183 -35 -157 -34
-228 0 -273 14 -19 58 -104 97 -189 77 -164 120 -234 162 -262 31 -20 95 -33
130 -27 29 6 29 6 -11 238 -13 77 -24 155 -24 175 -1 33 -2 34 -15 16 -13 -17
-15 -17 -21 -3 -3 9 -1 32 6 52 13 39 15 105 11 295 -4 172 18 234 136 382 63
80 160 160 374 310 87 60 180 129 208 153 34 29 65 46 89 50 104 16 206 40
296 72 315 111 359 124 496 148 303 53 656 92 1085 121 303 21 1059 22 1309 2
l169 -14 32 51 c55 85 80 143 163 370 97 264 120 318 176 404 59 92 136 163
220 205 l71 36 54 -14 c147 -40 217 -143 281 -416 62 -264 93 -349 157 -428
41 -51 52 -46 89 33 41 87 57 183 52 313 -4 110 -6 122 -41 196 -30 65 -54 95
-130 171 -50 50 -148 134 -217 186 -147 111 -226 182 -266 240 -26 38 -29 52
-34 143 l-5 100 -57 41 c-55 38 -74 60 -176 203 -58 80 -108 114 -178 120 -30
3 -54 0 -54 -5z"/>
<path d="M6946 5508 c-9 -334 -25 -813 -30 -870 -3 -44 -1 -48 19 -48 27 0
105 49 133 84 12 15 31 53 44 84 24 62 27 149 20 617 -1 105 2 206 6 225 9 34
7 37 -55 93 -50 45 -70 57 -97 57 l-33 0 -7 -242z"/>
<path d="M7237 4666 c-26 -7 -50 -16 -54 -19 -3 -4 -1 -25 6 -47 10 -33 24
-48 84 -89 239 -163 374 -437 428 -869 10 -83 10 -94 -5 -111 -25 -27 -86 -39
-216 -44 -135 -5 -174 -19 -196 -74 -40 -95 20 -128 236 -128 127 0 141 2 233
34 l97 34 63 -28 c227 -101 451 -251 669 -447 83 -76 101 -88 132 -88 19 0 73
-14 118 -31 163 -62 193 -70 224 -64 35 6 58 27 73 67 10 27 8 29 -42 54 -97
50 -168 106 -325 256 -96 91 -233 208 -352 299 -296 225 -311 242 -340 379
-21 99 -29 114 -131 260 -37 52 -100 151 -139 220 -140 241 -238 358 -348 414
-63 32 -149 41 -215 22z"/>
<path d="M4774 3871 c-49 -12 -54 -19 -54 -71 0 -44 4 -52 33 -74 18 -14 80
-46 138 -70 209 -91 258 -186 340 -660 66 -384 91 -453 233 -643 46 -61 92
-130 102 -152 16 -37 21 -40 68 -47 77 -10 163 -41 246 -89 178 -101 223 -114
401 -115 257 0 441 93 602 305 120 159 214 378 306 716 57 209 59 219 32 212
-10 -2 -37 5 -61 17 -56 29 -80 23 -107 -25 -38 -67 -63 -141 -119 -360 -32
-123 -68 -240 -88 -282 -43 -90 -111 -164 -185 -200 -52 -26 -64 -28 -181 -27
-110 0 -147 5 -310 43 -130 29 -191 48 -207 62 -38 37 -80 131 -117 262 -44
155 -65 198 -108 225 -54 34 -76 64 -98 134 -14 46 -34 83 -65 119 -25 29 -79
107 -122 173 -199 311 -319 448 -447 512 -78 38 -167 52 -232 35z"/>
<path d="M1315 2790 c-35 -20 -84 -35 -165 -50 -170 -31 -220 -47 -220 -69 0
-23 -30 -68 -109 -161 -89 -106 -114 -163 -119 -271 -6 -112 11 -208 49 -286
38 -79 74 -106 148 -110 69 -5 105 12 109 50 2 16 -6 68 -17 116 -42 177 -26
226 105 325 156 117 322 186 447 186 63 0 147 -17 147 -30 0 -10 -74 -25 -164
-35 -72 -8 -104 -19 -133 -47 -44 -41 -21 -105 48 -132 31 -12 78 -16 212 -16
l172 0 28 -30 c27 -29 33 -30 110 -30 71 0 92 -5 157 -33 41 -19 129 -67 195
-107 325 -199 523 -302 618 -322 94 -20 154 11 186 95 9 24 7 26 -47 48 -111
44 -296 141 -505 266 -244 145 -410 234 -511 274 -84 34 -66 36 64 9 269 -57
556 -173 825 -335 159 -95 237 -148 528 -353 125 -88 327 -224 449 -303 499
-319 697 -454 855 -581 66 -53 77 -59 143 -68 93 -13 185 -45 390 -132 351
-151 408 -163 760 -163 337 0 509 25 905 130 94 25 179 48 190 50 11 3 -7 -8
-40 -24 -33 -15 -123 -67 -200 -115 -212 -132 -242 -144 -365 -156 -96 -9
-114 -14 -214 -62 l-109 -53 -146 1 c-175 1 -289 25 -486 104 -137 54 -171 71
-259 124 -66 40 -117 46 -166 21 -29 -15 -29 -15 -14 -51 98 -234 439 -408
893 -454 272 -27 474 3 686 104 93 44 350 190 535 304 161 100 269 147 435
192 252 68 336 114 378 209 16 36 17 45 6 52 -31 19 -103 21 -197 4 -53 -9
-122 -21 -152 -27 -55 -9 -115 -4 -124 11 -3 4 43 24 102 45 186 66 396 165
797 378 500 264 656 335 910 414 217 67 550 114 720 101 91 -7 101 -12 130
-62 29 -48 33 -131 14 -242 -14 -78 -6 -123 27 -163 33 -39 69 -39 121 -1 51
37 88 111 111 219 18 90 14 119 -36 257 -21 56 -38 82 -84 127 -116 115 -350
198 -620 220 l-137 12 -58 -55 c-74 -71 -86 -77 -186 -94 -281 -50 -502 -146
-987 -430 -381 -224 -505 -278 -920 -401 -248 -74 -288 -90 -550 -217 -324
-157 -375 -175 -590 -202 -207 -27 -413 -16 -670 35 -256 51 -492 136 -781
280 -257 129 -432 239 -786 493 -608 436 -1110 718 -1712 959 -443 178 -754
265 -1001 282 -69 5 -79 3 -125 -24z m6211 -1978 c-30 -34 -176 -95 -176 -74
0 5 13 21 29 36 32 31 91 55 135 56 28 0 28 -1 12 -18z"/>
</g>
</svg>
